<?xml version="1.0" encoding="utf-8"?>
<!-- Generator: Adobe Illustrator 27.2.0, SVG Export Plug-In . SVG Version: 6.00 Build 0)  -->
<svg version="1.1"
	 id="svg5531" xmlns:rdf="http://www.w3.org/1999/02/22-rdf-syntax-ns#" xmlns:cc="http://web.resource.org/cc/" xmlns:svg="http://www.w3.org/2000/svg" xmlns:dc="http://purl.org/dc/elements/1.1/"
	 xmlns="http://www.w3.org/2000/svg" xmlns:xlink="http://www.w3.org/1999/xlink" x="0px" y="0px" viewBox="0 0 693.3 61.1"
	 style="enable-background:new 0 0 693.3 61.1;" xml:space="preserve">
<style type="text/css">
	.st0{fill-rule:evenodd;clip-rule:evenodd;fill:#F3D044;}
	.st1{fill-rule:evenodd;clip-rule:evenodd;}
</style>
<g id="layer1" transform="translate(-.98007 -1.1976)">
	<polygon id="rect6424" class="st0" points="7.1,62.3 56.7,62.3 99.9,1.2 50.3,1.2 	"/>
	<polygon id="rect6426" class="st1" points="56.7,62.3 106.3,62.3 149.5,1.2 99.9,1.2 	"/>
	<polygon id="rect6428" class="st0" points="106.2,62.3 155.8,62.3 199,1.2 149.4,1.2 	"/>
	<polygon id="rect6430" class="st1" points="155.8,62.3 205.4,62.3 248.7,1.2 199,1.2 	"/>
	<polygon id="rect6432" class="st0" points="205.3,62.3 254.9,62.3 298.1,1.2 248.5,1.2 	"/>
	<polygon id="rect6434" class="st1" points="254.9,62.3 304.6,62.3 347.8,1.2 298.2,1.2 	"/>
	<polygon id="rect6436" class="st0" points="304.2,62.3 353.8,62.3 397.1,1.2 347.5,1.2 	"/>
	<polygon id="rect6438" class="st1" points="353.8,62.3 403.5,62.3 446.7,1.2 397.1,1.2 	"/>
	<polygon id="rect6440" class="st0" points="403.3,62.3 452.9,62.3 496.2,1.2 446.6,1.2 	"/>
	<polygon id="rect6442" class="st1" points="453,62.3 502.6,62.3 545.8,1.2 496.2,1.2 	"/>
	<polygon id="rect6444" class="st0" points="502.4,62.3 552,62.3 595.3,1.2 545.7,1.2 	"/>
	<polygon id="rect6446" class="st1" points="552.1,62.3 601.7,62.3 645,1.2 595.3,1.2 	"/>
	<polygon id="rect6448" class="st0" points="601.4,62.3 651,62.3 694.3,1.2 644.6,1.2 	"/>
	<polygon class="st1" points="694.2,1.4 651.1,62.3 694.2,62.3 	"/>
	<polygon class="st1" points="1,1.3 1,1.3 1,62.3 7.4,62.3 50.6,1.3 	"/>
</g>
</svg>
